<svg width="278" height="80" viewBox="0 0 278 80" fill="none" xmlns="http://www.w3.org/2000/svg">
<path d="M139.082 0.300781C139.082 1.15784 139.418 8.38201 147.56 20.4727C151.906 26.9311 150.621 31.92 146.275 36.9092C143.716 39.8849 139.335 47.6922 139.093 63.4521L140.123 64.4678L140.128 64.4736C140.136 64.4809 140.151 64.4944 140.171 64.5137C140.213 64.5523 140.281 64.6146 140.375 64.6963C140.564 64.8597 140.859 65.1024 141.257 65.3984C142.054 65.9906 143.268 66.7942 144.894 67.6025C148.141 69.217 153.044 70.8554 159.589 70.8555C171.809 70.8555 177.862 69.0253 185.174 67.1533C192.599 65.2525 201.161 63.3565 218.175 63.3564C237.24 63.3564 250.435 66.1021 258.904 68.8809C263.137 70.2699 266.186 71.6665 268.194 72.7285C269.198 73.2595 269.941 73.7066 270.441 74.0273C270.691 74.1877 270.88 74.3165 271.011 74.4082C271.077 74.454 271.128 74.4899 271.165 74.5166C271.183 74.5299 271.197 74.5415 271.208 74.5498C271.214 74.5538 271.219 74.5568 271.222 74.5596C271.224 74.5609 271.226 74.5624 271.227 74.5635L271.229 74.5654C271.227 74.57 271.176 74.6383 270.303 75.7832L271.231 74.5664L277.875 79.6318L269.867 77.251C266.339 76.2021 262.346 74.5581 255.156 73.1299C247.994 71.7072 237.705 70.5186 221.941 70.5186C206.196 70.5186 196.661 71.7493 188.77 73.0391C180.875 74.3295 174.44 75.7174 165.11 75.9658L165.111 75.9668C155.538 76.2327 148.826 74.5363 144.463 72.7246C142.285 71.8199 140.7 70.8895 139.645 70.1699C139.423 70.0188 139.226 69.8763 139.05 69.7461C138.875 69.8762 138.678 70.019 138.457 70.1699C137.401 70.8895 135.817 71.8199 133.638 72.7246C129.275 74.5363 122.563 76.2327 112.991 75.9668V75.9658C103.676 75.7173 97.2411 74.3294 89.3433 73.0391C81.4488 71.7492 71.9053 70.5186 56.1606 70.5186C40.3963 70.5186 30.1069 71.6993 22.9448 73.1182C15.7608 74.5414 11.7579 76.1875 8.24072 77.249L0.124512 79.6982L6.87158 74.5654L7.79834 75.7832C6.91878 74.6269 6.87497 74.568 6.87354 74.5645L6.87549 74.5625C6.87691 74.5614 6.87854 74.56 6.88037 74.5586C6.88403 74.5558 6.88874 74.5528 6.89404 74.5488C6.90516 74.5406 6.9207 74.529 6.93896 74.5156C6.97541 74.489 7.02617 74.4528 7.09131 74.4072C7.22238 74.3156 7.41217 74.1867 7.6626 74.0264C8.16354 73.7057 8.90779 73.2584 9.9126 72.7275C11.9225 71.6657 14.9743 70.2698 19.2095 68.8809C27.682 66.1022 40.8763 63.3564 59.9263 63.3564C76.941 63.3565 85.5026 65.2525 92.9272 67.1533C100.24 69.0253 106.292 70.8555 118.512 70.8555C125.058 70.8554 129.96 69.217 133.208 67.6025C134.833 66.7942 136.047 65.9906 136.844 65.3984C137.243 65.1024 137.537 64.8597 137.726 64.6963C137.82 64.6146 137.888 64.5523 137.93 64.5137C137.951 64.4945 137.966 64.4809 137.973 64.4736L137.979 64.4678L139.05 63.4102L139.07 63.4287C138.826 47.6828 134.476 39.8537 131.888 36.9092C127.542 31.92 126.257 26.9616 130.603 20.4727C138.745 8.38201 139.082 1.15784 139.082 0.300781ZM269.376 77.002L269.377 77.0029H269.378L269.376 77.001V77.002ZM68.1929 50.502C68.1929 50.502 68.5299 50.7772 69.1421 51.3281C69.4481 51.573 69.8149 51.9407 70.2739 52.2773C70.733 52.614 71.2842 53.0119 71.8657 53.4404C74.2839 55.0627 77.9573 56.8993 82.4263 58.1543C86.8646 59.4705 92.0375 60.2356 97.2104 60.4805C99.7816 60.5723 102.383 60.5417 104.863 60.3887C105.475 60.3275 106.056 60.2966 106.668 60.2354C107.219 60.1129 107.801 59.9912 108.352 59.8994C108.934 59.8076 109.454 59.7458 110.036 59.5928C110.617 59.4397 111.168 59.2868 111.719 59.1338C116.157 57.9095 119.891 56.6851 122.983 56.0117C124.513 55.675 125.922 55.4909 127.116 55.3379C128.371 55.2461 129.442 55.2773 130.299 55.2773C131.187 55.2774 131.921 55.4908 132.502 55.6133C133.084 55.7663 133.513 55.9196 133.85 56.042C134.479 56.3115 134.697 56.4932 134.707 56.501C134.707 56.501 134.462 56.7157 133.88 57.083C133.574 57.2666 133.177 57.4505 132.687 57.6953C132.197 57.9402 131.585 58.1236 130.85 58.5215C130.116 58.8888 129.258 59.2561 128.249 59.6846C127.208 60.1743 126.044 60.6642 124.667 61.2764C121.912 62.4701 118.392 64.0924 113.403 65.4697C112.76 65.6228 112.117 65.8069 111.474 65.96C110.831 66.1129 110.097 66.1735 109.393 66.2959C108.689 66.3877 107.985 66.4804 107.25 66.5723C106.547 66.6029 105.812 66.6328 105.108 66.6328C102.292 66.6328 99.445 66.3885 96.6597 65.96C91.0888 65.0417 85.7015 63.3578 81.2632 61.1846C76.7637 59.042 73.3352 56.3793 71.2231 54.2061C70.7029 53.6552 70.244 53.1345 69.8462 52.7061C69.4483 52.2775 69.1721 51.8484 68.9272 51.5117C68.4683 50.8691 68.1929 50.502 68.1929 50.502ZM209.269 51.5117C209.024 51.8178 208.749 52.2775 208.351 52.7061C207.953 53.1346 207.493 53.6551 206.973 54.2061C204.861 56.3793 201.402 59.0726 196.933 61.1846C192.495 63.3884 187.107 65.0723 181.537 65.96C178.751 66.3884 175.905 66.6328 173.089 66.6328C172.355 66.6022 171.65 66.5723 170.946 66.5723C170.242 66.4805 169.507 66.3877 168.803 66.2959C168.099 66.2041 167.365 66.113 166.722 65.96C166.049 65.8069 165.436 65.6228 164.793 65.4697C159.774 64.0923 156.253 62.4701 153.499 61.2764C152.121 60.6643 150.959 60.2048 149.949 59.6846C148.939 59.256 148.081 58.8888 147.346 58.5215C146.612 58.1238 146 57.9401 145.51 57.6953C145.021 57.481 144.622 57.2667 144.316 57.083C143.704 56.7158 143.49 56.501 143.49 56.501H143.52C143.522 56.4986 143.738 56.2855 144.377 56.042C144.714 55.889 145.143 55.7663 145.724 55.6133C146.306 55.4602 147.071 55.2773 147.928 55.2773C148.816 55.2467 149.887 55.2155 151.112 55.3379C152.275 55.4909 153.713 55.675 155.244 56.0117C158.366 56.6851 162.07 57.94 166.508 59.1338C167.059 59.2868 167.61 59.4398 168.191 59.5928C168.742 59.7458 169.293 59.777 169.844 59.8994C170.395 60.0218 170.946 60.1129 171.528 60.2354C172.14 60.2966 172.721 60.3275 173.333 60.3887C175.813 60.5417 178.415 60.5723 180.986 60.4805C186.159 60.2356 191.332 59.4704 195.77 58.1543C200.239 56.8993 203.912 55.0933 206.331 53.4404C206.912 53.0119 207.463 52.614 207.922 52.2773C208.381 51.9407 208.749 51.6036 209.055 51.3281C209.661 50.8133 209.997 50.5082 210.003 50.502C209.999 50.5084 209.754 50.8449 209.269 51.5117ZM161.458 34.7393C162.928 34.1271 164.826 33.6984 167.152 34.3105C168.284 34.6166 169.509 35.2598 170.519 36.2393C171.009 36.7596 171.407 37.2492 171.866 38.0449C172.202 38.7794 172.417 39.3306 172.57 40.0957C172.907 41.5649 172.815 43.1877 172.386 44.5957C171.927 46.0036 171.192 47.2279 170.335 48.2686C168.591 50.3194 166.478 51.7582 163.876 52.6152L164.06 52.5537C162.009 53.3189 160.234 53.2884 158.612 53.2578C156.99 53.1966 155.521 52.9825 154.113 52.7988C151.358 52.4315 148.878 52.1562 146.858 52.4316C144.838 52.6765 143.368 53.7168 142.695 54.7881C142.267 55.247 142.144 55.7674 141.93 56.043L141.685 56.5332C141.685 56.5332 141.716 56.3494 141.777 56.0127C141.869 55.676 141.869 55.1248 142.175 54.5127C142.543 53.2271 143.951 51.4211 146.277 50.5029C148.572 49.5542 151.389 49.2478 154.205 49.0029C155.612 48.8805 157.051 48.7891 158.398 48.6055C159.714 48.4218 161 48.0851 161.765 47.626L161.949 47.5645C163.265 46.8911 164.611 45.6974 165.407 44.5039C165.805 43.9224 166.08 43.31 166.203 42.8203C166.325 42.3306 166.294 41.9321 166.203 41.5342C166.202 41.3812 166.051 41.1067 166.05 41.0146C166.08 41.0136 165.958 40.8306 165.897 40.7695C165.744 40.5859 165.56 40.4323 165.285 40.2793C164.734 40.0039 163.907 39.9122 163.204 40.0039C162.836 40.0039 162.53 40.1263 162.224 40.1875C161.918 40.2793 161.826 40.2493 161.642 40.3105C161.306 40.4024 160.969 40.647 160.786 40.9834C160.388 41.6261 160.51 42.3608 160.541 42.8506C160.631 43.3329 160.632 43.6373 160.632 43.6465L160.571 43.5859C160.562 43.5881 160.315 43.6445 159.745 43.5244C159.469 43.4326 159.04 43.2794 158.612 42.9121C158.183 42.5448 157.632 41.9631 157.387 41.0449C157.142 40.1573 157.204 38.9024 157.969 37.6475C158.336 37.0354 158.949 36.3621 159.5 35.9336C160.05 35.4745 160.724 35.0453 161.458 34.7393ZM111.106 34.2441C113.401 33.6321 115.3 34.0607 116.799 34.6729C117.534 34.9789 118.207 35.4081 118.758 35.8672C119.309 36.2957 119.921 36.969 120.289 37.5811C121.054 38.836 121.114 40.0603 120.87 40.9785C120.625 41.8966 120.105 42.4784 119.646 42.8457C119.187 43.213 118.789 43.3662 118.513 43.458C117.946 43.5773 117.699 43.5224 117.687 43.5195L117.625 43.5801C117.626 43.5714 117.627 43.2962 117.717 42.7842C117.748 42.2944 117.87 41.5597 117.472 40.917C117.289 40.6112 116.952 40.3361 116.616 40.2441C116.432 40.1829 116.34 40.2129 116.034 40.1211C115.758 40.0599 115.421 39.9681 115.054 39.9375C114.35 39.8763 113.524 39.9376 112.973 40.2129C112.698 40.3353 112.514 40.4889 112.361 40.7031C112.3 40.7948 112.178 40.9778 112.208 40.9482C112.207 41.0101 112.054 41.2845 112.054 41.4678C111.962 41.8657 111.962 42.2336 112.054 42.7539C112.177 43.2436 112.452 43.8253 112.85 44.4375C113.646 45.6312 114.962 46.8246 116.309 47.498L116.493 47.5596C117.258 48.0187 118.544 48.3554 119.86 48.5391C121.176 48.7533 122.645 48.8141 124.053 48.9365C126.869 49.1814 129.716 49.4877 131.981 50.4365C134.307 51.3547 135.715 53.1607 136.083 54.4463C136.389 55.0584 136.389 55.6096 136.481 55.9463C136.542 56.283 136.573 56.4668 136.573 56.4668C136.573 56.4668 136.481 56.3133 136.328 55.9766C136.144 55.701 135.99 55.1806 135.562 54.7217C134.889 53.6812 133.389 52.6102 131.4 52.3652C129.38 52.0898 126.9 52.3651 124.145 52.7324C122.737 52.9161 121.268 53.1302 119.646 53.1914C118.024 53.222 116.248 53.2525 114.197 52.4873L114.38 52.5488C111.779 51.6918 109.667 50.2529 107.922 48.2021C107.065 47.1615 106.331 45.9678 105.872 44.5293C105.412 43.1213 105.351 41.4985 105.688 40.0293C105.841 39.2643 106.086 38.7436 106.392 37.9785C106.821 37.1829 107.218 36.6931 107.739 36.1729C108.749 35.1628 109.973 34.5502 111.106 34.2441Z" fill="url(#paint0_linear_12127_5633)"/>
<defs>
<linearGradient id="paint0_linear_12127_5633" x1="0.124512" y1="39.9995" x2="217.5" y2="39.9995" gradientUnits="userSpaceOnUse">
<stop stop-color="#EFC371"/>
<stop offset="1" stop-color="#C59A49"/>
</linearGradient>
</defs>
</svg>
